<?xml version="1.0" encoding="UTF-8" standalone="no"?>
<svg xmlns:dc="http://purl.org/dc/elements/1.1/" xmlns:cc="http://creativecommons.org/ns#" xmlns:rdf="http://www.w3.org/1999/02/22-rdf-syntax-ns#" xmlns:svg="http://www.w3.org/2000/svg" xmlns="http://www.w3.org/2000/svg" xmlns:sodipodi="http://sodipodi.sourceforge.net/DTD/sodipodi-0.dtd" xmlns:inkscape="http://www.inkscape.org/namespaces/inkscape" version="1.0" width="707.94165" height="179.7" id="svg3103" inkscape:version="0.48.2 r9819" sodipodi:docname="Documento memoria 6">
  <metadata id="metadata3135"></metadata>
  <defs id="defs3105">
    <clipPath id="clipEmfPath1">
      <rect x="-9000" y="-9000" width="18000" height="18000" id="rect3108"></rect>
    </clipPath>
    <clipPath id="clipEmfPath2">
      <rect x="0" y="0" width="900" height="675" id="rect3111"></rect>
    </clipPath>
    <clipPath id="clipEmfPath3">
      <rect x="-9000" y="-9000" width="18000" height="18000" id="rect3114"></rect>
    </clipPath>
    <clipPath id="clipEmfPath4">
      <rect x="0" y="0" width="900.29999" height="675.29999" id="rect3117"></rect>
    </clipPath>
  </defs>
  <g id="g3119" inkscape:export-filename="C:\Users\Cinzia\OneDrive\Hacklab Cormano\immagini per icona\LOGO_HackLabCormano\LcBbmp.png" inkscape:export-xdpi="300" inkscape:export-ydpi="300" transform="translate(-63.9,-264.6)">
    <path style="fill:#000000;fill-opacity:1;fill-rule:evenodd;stroke:none" clip-path="url(#clipEmfPath1)" d="m 260.1,334.8 0,39.3 11.4,0 0,-39.3 -11.4,0 z" id="path3121" inkscape:connector-curvature="0"></path>
    <path style="fill:#000000;fill-opacity:1;fill-rule:evenodd;stroke:none" d="m 349.8,322.2 -1.8,-4.2 -2.1,-4.2 -2.1,-3.9 -2.4,-3.9 -2.4,-3.6 -2.7,-3.6 -2.7,-3.6 -3,-3 -3,-3.3 -3.3,-2.7 -3.3,-2.7 -3.6,-2.7 -3.6,-2.4 -3.6,-2.1 -3.9,-2.1 -3.9,-1.8 -3.9,-1.8 -4.2,-1.5 -4.2,-1.2 -4.2,-1.2 -4.2,-0.6 -4.2,-0.9 -4.2,-0.3 -4.5,-0.3 -4.5,0 -4.2,0 -4.5,0.6 -4.5,0.6 -4.2,0.9 -4.5,0.9 -4.5,1.5 -4.2,1.5 -4.5,1.8 -3.9,1.8 -4.2,2.1 -3.6,2.4 -3.9,2.4 -3.6,2.7 -3.3,3 -3.3,2.7 -3,3.3 -3,3.3 -2.7,3.3 -2.4,3.6 -2.4,3.6 -2.4,3.6 -1.8,3.9 -2.1,3.9 -1.5,3.9 -1.5,3.9 -1.2,4.2 -1.2,4.2 -0.9,4.2 -0.6,4.2 -0.6,4.5 0,4.2 -0.3,4.5 0.3,4.5 0.3,4.2 0.6,4.5 0.9,4.5 1.2,4.5 1.2,4.2 1.5,4.5 1.8,4.2 2.1,4.2 2.1,3.9 2.4,3.9 2.4,3.6 2.7,3.6 2.7,3.3 3,3.3 3.3,3 3,3 3.6,2.7 3.3,2.7 3.6,2.4 3.9,2.1 3.6,2.1 3.9,1.8 3.9,1.8 4.2,1.2 4.2,1.5 4.2,0.9 4.2,0.9 4.2,0.6 4.5,0.6 4.2,0.3 4.5,0 4.2,-0.3 4.5,-0.3 4.5,-0.6 4.5,-0.9 4.2,-0.9 4.5,-1.5 4.2,-1.5 4.5,-1.8 4.2,-2.1 3.9,-2.1 3.9,-2.4 3.9,-2.4 3.6,-3 3.6,-3 3.3,-3 3.3,-3.3 3,-3.3 2.7,-3.6 2.7,-3.9 2.4,-3.9 2.4,-3.9 2.1,-4.2 1.8,-4.2 -57.6,-23.4 -1.2,2.7 -1.5,2.4 -1.5,2.1 -1.8,2.1 -2.1,1.8 -2.1,1.5 -2.4,1.5 -2.4,1.2 -2.4,0.9 -2.7,0.6 -2.7,0.6 -2.7,0 -2.7,0 -2.7,-0.3 -2.7,-0.9 -2.7,-0.9 -2.4,-1.2 -2.4,-1.2 -2.4,-1.8 -1.8,-1.8 -1.8,-2.1 -1.8,-2.1 -1.2,-2.1 -1.2,-2.4 -0.9,-2.7 -0.9,-2.4 -0.3,-2.7 -0.3,-2.7 0.3,-2.7 0.3,-2.7 0.6,-2.7 0.9,-2.7 1.2,-2.7 1.5,-2.4 1.5,-2.1 1.8,-2.1 2.1,-1.8 2.1,-1.5 2.4,-1.5 2.4,-1.2 2.4,-0.9 2.7,-0.6 2.7,-0.6 2.7,0 2.7,0 2.7,0.3 2.7,0.6 2.7,0.9 2.4,1.2 2.7,1.5 2.1,1.8 2.1,1.8 1.8,2.1 1.8,2.4 1.5,2.4 1.2,2.7 57.9,-22.2 z" id="path3123" inkscape:connector-curvature="0"></path>
    <path style="fill:#000000;fill-opacity:1;fill-rule:evenodd;stroke:none" d="m 135.9,354.3 0,-1.2 0.3,-1.2 0.3,-0.9 0.3,-1.2 0.6,-1.2 0.6,-0.9 0.6,-0.9 0.9,-0.9 0.9,-0.6 0.9,-0.9 0.9,-0.6 1.2,-0.3 0.9,-0.6 1.2,-0.3 1.2,0 1.2,0 1.2,0 1.2,0 1.2,0.3 0.9,0.6 1.2,0.3 0.9,0.6 0.9,0.9 0.9,0.6 0.9,0.9 0.6,0.9 0.6,0.9 0.6,1.2 0.3,1.2 0.3,0.9 0.3,1.2 0,1.2 0,1.2 -0.3,1.2 -0.3,1.2 -0.3,1.2 -0.6,0.9 -0.6,1.2 -0.6,0.9 -0.9,0.9 -0.9,0.6 -0.9,0.6 -0.9,0.6 -1.2,0.6 -0.9,0.3 -1.2,0.3 -1.2,0.3 -1.2,0 -1.2,0 -1.2,-0.3 -1.2,-0.3 -0.9,-0.3 -1.2,-0.6 -0.9,-0.6 -0.9,-0.6 -0.9,-0.6 -0.9,-0.9 -0.6,-0.9 -0.6,-1.2 -0.6,-0.9 -0.3,-1.2 -0.3,-1.2 -0.3,-1.2 0,-1.2 z" id="path3125" inkscape:connector-curvature="0"></path>
    <path style="fill:#000000;fill-opacity:1;fill-rule:evenodd;stroke:none" d="m 63.9,322.2 1.8,-4.2 2.1,-4.2 2.1,-3.9 2.4,-3.9 2.4,-3.6 2.7,-3.6 2.7,-3.6 3,-3 3,-3.3 3.3,-2.7 3.6,-2.7 3.3,-2.7 3.6,-2.4 3.6,-2.1 3.9,-2.1 3.9,-1.8 3.9,-1.8 4.2,-1.5 4.2,-1.2 4.2,-1.2 4.2,-0.6 4.2,-0.9 4.5,-0.3 4.2,-0.3 4.5,0 4.2,0 4.5,0.6 4.5,0.6 4.5,0.9 4.2,0.9 4.5,1.5 4.2,1.5 4.5,1.8 3.9,1.8 4.2,2.1 3.9,2.4 3.6,2.4 3.6,2.7 3.3,3 3.3,2.7 3,3.3 3,3.3 2.7,3.3 2.4,3.6 2.4,3.6 2.4,3.6 2.1,3.9 1.8,3.9 1.5,3.9 1.5,3.9 1.2,4.2 1.2,4.2 0.9,4.2 0.6,4.2 0.6,4.5 0.3,4.2 0,4.5 -0.3,4.5 -0.3,4.2 -0.6,4.5 -0.9,4.5 -1.2,4.5 -1.2,4.2 -1.5,4.5 -1.8,4.2 -2.1,4.2 -2.1,3.9 -2.4,3.9 -2.4,3.6 -2.7,3.6 -2.7,3.3 -3,3.3 -3,3 -3.3,3 -3.3,2.7 -3.6,2.7 -3.6,2.4 -3.6,2.1 -3.9,2.1 -3.9,1.8 -3.9,1.8 -4.2,1.2 -4.2,1.5 -4.2,0.9 -4.2,0.9 -4.2,0.6 -4.2,0.6 -4.5,0.3 -4.5,0 -4.2,-0.3 -4.5,-0.3 -4.5,-0.6 -4.5,-0.9 -4.2,-0.9 -4.5,-1.5 -4.2,-1.5 -4.5,-1.8 -4.2,-2.1 -3.9,-2.1 -3.9,-2.4 -3.9,-2.4 -3.6,-3 -3.6,-3 -3.3,-3 -3.3,-3.3 -3,-3.3 -2.7,-3.6 -2.7,-3.9 -2.4,-3.9 -2.4,-3.9 -2.1,-4.2 -1.8,-4.2 57.6,-23.4 1.2,2.7 1.5,2.4 1.5,2.1 1.8,2.1 2.1,1.8 2.1,1.5 2.4,1.5 2.4,1.2 2.4,0.9 2.7,0.6 2.7,0.6 2.7,0 2.7,0 2.7,-0.3 2.7,-0.9 2.7,-0.9 2.4,-1.2 2.4,-1.2 2.4,-1.8 2.1,-1.8 1.8,-2.1 1.5,-2.1 1.5,-2.1 0.9,-2.4 0.9,-2.7 0.9,-2.4 0.3,-2.7 0.3,-2.7 -0.3,-2.7 -0.3,-2.7 -0.6,-2.7 -0.9,-2.7 -1.2,-2.7 -1.5,-2.4 -1.5,-2.1 -1.8,-2.1 -2.1,-1.8 -2.1,-1.5 -2.4,-1.5 -2.4,-1.2 -2.4,-0.9 -2.7,-0.6 -2.7,-0.6 -2.7,0 -2.7,0 -2.7,0.3 -2.7,0.6 -2.7,0.9 -2.4,1.2 -2.7,1.5 -2.1,1.8 -2.1,1.8 -1.8,2.1 -1.8,2.4 -1.5,2.4 -1.2,2.7 -57.9,-22.2 z" id="path3127" inkscape:connector-curvature="0"></path>
    <g style="font-size:82.5px;font-style:normal;font-weight:normal;text-align:start;text-anchor:start;fill:#000000;font-family:Keep Calm Med" id="text3129">
      <path d="m 441.61507,435.32204 c -2.4204,2.75101 -5.33547,4.84154 -8.74524,6.27159 -3.40984,1.43005 -6.98455,2.14508 -10.72414,2.14508 -3.46606,0 -6.73907,-0.63278 -9.81903,-1.89835 -3.08,-1.26556 -5.76093,-3.012 -8.04279,-5.23933 -2.28189,-2.22732 -4.08288,-4.88097 -5.40299,-7.96097 -1.32012,-3.07997 -1.98017,-6.40753 -1.98017,-9.98268 0,-3.51972 0.66005,-6.80573 1.98017,-9.85806 1.32011,-3.05225 3.10768,-5.7059 5.3627,-7.96096 2.25501,-2.25498 4.92251,-4.0287 8.00251,-5.32116 3.07997,-1.29237 6.37983,-1.93858 9.8996,-1.93863 3.62881,5e-5 7.07974,0.65968 10.35278,1.97891 3.27297,1.31932 6.11965,3.32676 8.54004,6.02234 l -8.00377,8.16742 c -1.21021,-1.59451 -2.68138,-2.9142 -4.41352,-3.95909 -1.73222,-1.0448 -3.83617,-1.56723 -6.31188,-1.56726 -1.81445,3e-5 -3.53278,0.38482 -5.15499,1.15436 -1.62226,0.76962 -3.05231,1.80061 -4.29016,3.093 -1.23789,1.29245 -2.21434,2.81859 -2.92935,4.57843 -0.71504,1.7599 -1.07255,3.63013 -1.07254,5.6107 -1e-5,1.98061 0.3575,3.85084 1.07254,5.61069 0.71501,1.75989 1.67761,3.28604 2.88781,4.57844 1.21015,1.29243 2.6402,2.32343 4.29016,3.093 1.64991,0.76958 3.38208,1.15437 5.19653,1.15436 2.36493,1e-5 4.51001,-0.56353 6.43524,-1.69063 1.92517,-1.12708 3.46516,-2.57098 4.61998,-4.33171 z" style="font-size:82.5px;font-style:normal;font-weight:normal;text-align:start;text-anchor:start;fill:#000000;font-family:Keep Calm Med" id="path3138" inkscape:connector-curvature="0"></path>
      <path d="m 496.62682,418.65738 c -6e-5,3.57515 -0.66011,6.88886 -1.98018,9.94114 -1.32016,3.0523 -3.13542,5.69211 -5.44578,7.91942 -2.31045,2.22733 -5.0195,3.98762 -8.12714,5.28088 -3.10771,1.29326 -6.42142,1.93989 -9.94114,1.93989 -3.51977,0 -6.81963,-0.64663 -9.89959,-1.93989 -3.08001,-1.29326 -5.77478,-3.06739 -8.08434,-5.32242 -2.30958,-2.25501 -4.12442,-4.90866 -5.44453,-7.96097 -1.32011,-3.05227 -1.98017,-6.33829 -1.98017,-9.85805 0,-3.46433 0.67348,-6.72307 2.02046,-9.77623 1.34696,-3.0531 3.17565,-5.7206 5.48607,-8.00251 2.31039,-2.28183 5.00559,-4.06898 8.08559,-5.36144 3.07997,-1.29237 6.35213,-1.93858 9.81651,-1.93863 3.51972,5e-5 6.83343,0.64626 9.94114,1.93863 3.10764,1.29246 5.81669,3.05233 8.12714,5.27961 2.31036,2.22737 4.12562,4.88102 5.44578,7.96097 1.32007,3.08002 1.98012,6.37988 1.98018,9.8996 z m -11.88103,0 c -4e-5,-2.03428 -0.35756,-3.93178 -1.07254,-5.69252 -0.71507,-1.76068 -1.69152,-3.30067 -2.92935,-4.61998 -1.2379,-1.31924 -2.6818,-2.35024 -4.3317,-3.093 -1.64996,-0.74268 -3.40983,-1.11404 -5.27962,-1.11408 -1.86984,4e-5 -3.62971,0.3714 -5.27961,1.11408 -1.64996,0.74276 -3.09344,1.77376 -4.33045,3.093 -1.23705,1.31931 -2.21307,2.8593 -2.92808,4.61998 -0.71505,1.76074 -1.07256,3.65824 -1.07254,5.69252 -2e-5,2.03432 0.35749,3.93183 1.07254,5.69252 0.71501,1.76073 1.69103,3.30072 2.92808,4.61998 1.23701,1.31929 2.68049,2.35028 4.33045,3.09299 1.6499,0.74274 3.40977,1.1141 5.27961,1.11409 1.86979,10e-6 3.62966,-0.37135 5.27962,-1.11409 1.6499,-0.74271 3.0938,-1.7737 4.3317,-3.09299 1.23783,-1.31926 2.21428,-2.85925 2.92935,-4.61998 0.71498,-1.76069 1.0725,-3.6582 1.07254,-5.69252 z" style="font-size:82.5px;font-style:normal;font-weight:normal;text-align:start;text-anchor:start;fill:#000000;font-family:Keep Calm Med" id="path3140" inkscape:connector-curvature="0"></path>
      <path d="m 538.41309,399.76456 -6.35468,10.06576 c -1.15482,-1.26553 -2.43339,-2.37961 -3.83572,-3.34224 -1.40238,-0.96257 -2.81859,-1.44387 -4.24861,-1.44391 -0.77045,4e-5 -1.60926,0.1788 -2.51645,0.53627 -0.90723,0.35755 -1.75947,0.94879 -2.55672,1.77372 -0.79729,0.825 -1.4712,1.91139 -2.02171,3.25917 -0.55056,1.34784 -0.82583,3.01203 -0.82581,4.9926 l 0,26.89407 -11.96159,0 0,-47.68524 11.96159,0 0,5.11597 c 1.43004,-2.03594 3.01157,-3.60363 4.74461,-4.70307 1.73299,-1.09935 3.67204,-1.64904 5.81714,-1.64909 2.08966,5e-5 4.13823,0.56359 6.14571,1.69063 2.00741,1.12714 3.89149,2.62559 5.65224,4.49536 z" style="font-size:82.5px;font-style:normal;font-weight:normal;text-align:start;text-anchor:start;fill:#000000;font-family:Keep Calm Med" id="path3142" inkscape:connector-curvature="0"></path>
      <path d="m 613.14095,442.5 -11.79795,0 0,-28.4626 c -6e-5,-3.35522 -0.81118,-5.89894 -2.43335,-7.63115 -1.6223,-1.73214 -3.6159,-2.59823 -5.9808,-2.59827 -1.81616,4e-5 -3.53532,0.28874 -5.15751,0.86609 -1.62229,0.57743 -3.20382,1.52576 -4.74461,2.845 0.49511,1.92524 0.74268,4.09801 0.74272,6.51833 l 0,28.4626 -11.8785,0 0,-28.4626 c -4e-5,-3.35522 -0.81158,-5.89894 -2.43462,-7.63115 -1.62311,-1.73214 -3.58943,-2.59823 -5.89897,-2.59827 -1.81445,4e-5 -3.40941,0.31601 -4.78489,0.94792 -1.37552,0.63198 -2.80516,1.63612 -4.2889,3.01243 l 0,34.73167 -11.88103,0 0,-47.68524 11.88103,0 0,3.54744 c 1.48374,-1.43001 3.22935,-2.58479 5.23681,-3.46436 2.00742,-0.87947 4.05683,-1.31922 6.14823,-1.31927 2.30954,5e-5 4.63295,0.52247 6.97025,1.56727 2.33723,1.04489 4.38621,2.55677 6.14696,4.53563 2.47402,-2.19874 4.97619,-3.76559 7.50653,-4.70054 2.53024,-0.93486 5.30768,-1.40231 8.33233,-1.40236 2.47568,5e-5 4.82721,0.37099 7.05459,1.11282 2.22726,0.74193 4.16589,1.92441 5.81589,3.54744 1.64986,1.62312 2.96997,3.68595 3.96034,6.18851 0.99022,2.50263 1.48537,5.51379 1.48545,9.03351 z" style="font-size:82.5px;font-style:normal;font-weight:normal;text-align:start;text-anchor:start;fill:#000000;font-family:Keep Calm Med" id="path3144" inkscape:connector-curvature="0"></path>
      <path d="m 660.97725,442.5 -11.96159,0 0,-2.55798 c -2.0914,1.43005 -4.30572,2.42035 -6.64296,2.97088 -2.33728,0.55054 -4.74294,0.82581 -7.21698,0.82581 -2.31127,0 -4.4018,-0.34409 -6.2716,-1.03226 -1.86982,-0.68817 -3.49205,-1.67846 -4.86671,-2.97088 -1.37467,-1.29242 -2.43336,-2.81856 -3.17608,-4.57844 -0.74272,-1.75987 -1.11408,-3.71234 -1.11408,-5.85743 0,-2.6956 0.59124,-5.04713 1.77372,-7.0546 1.18247,-2.00742 2.79128,-3.68463 4.82643,-5.03162 2.03513,-1.34694 4.41393,-2.35067 7.13642,-3.01117 2.72246,-0.66045 5.65138,-0.99069 8.78678,-0.99072 l 6.84562,0 c -3e-5,-2.80468 -0.90724,-5.03201 -2.72163,-6.68197 -1.81445,-1.6499 -4.42698,-2.47486 -7.8376,-2.4749 -1.64996,4e-5 -3.35486,0.30258 -5.11471,0.90763 -1.75989,0.60512 -3.52018,1.70494 -5.28088,3.29945 l -7.01179,-7.09488 c 2.52944,-2.42031 5.45794,-4.29012 8.78551,-5.60944 3.32755,-1.31923 6.75204,-1.97886 10.27348,-1.97891 3.29984,5e-5 6.24219,0.52247 8.82706,1.56727 2.5848,1.04489 4.67449,2.39228 6.26907,4.04216 2.08965,2.08974 3.56082,4.427 4.41353,7.0118 0.85262,2.58487 1.27895,5.88473 1.27899,9.8996 z m -11.96159,-11.88103 0,-8.82705 -5.44579,0 c -1.64996,2e-5 -3.2038,0.10996 -4.66152,0.32981 -1.45777,0.2199 -2.72291,0.59126 -3.79543,1.11409 -1.07256,0.52286 -1.9248,1.19676 -2.55673,2.02171 -0.63196,0.82498 -0.94793,1.81486 -0.94791,2.96963 -2e-5,1.64994 0.64619,2.99733 1.93863,4.04217 1.2924,1.04485 2.95576,1.56727 4.99008,1.56726 1.76069,10e-6 3.50713,-0.27484 5.23933,-0.82454 1.73215,-0.54969 3.47859,-1.34738 5.23934,-2.39308 z" style="font-size:82.5px;font-style:normal;font-weight:normal;text-align:start;text-anchor:start;fill:#000000;font-family:Keep Calm Med" id="path3146" inkscape:connector-curvature="0"></path>
      <path d="m 713.45367,442.5 -11.88102,0 0,-28.4626 c -4e-5,-1.70529 -0.26104,-3.20416 -0.78301,-4.49661 -0.52204,-1.29239 -1.22321,-2.36493 -2.10354,-3.21762 -0.88038,-0.85263 -1.88411,-1.48499 -3.01117,-1.89709 -1.12712,-0.41203 -2.29575,-0.61806 -3.50589,-0.6181 -1.81445,4e-5 -3.60202,0.31601 -5.3627,0.94792 -1.76074,0.63198 -3.35612,1.63612 -4.78615,3.01243 l 0,34.73167 -11.9616,0 0,-47.68524 11.9616,0 0,3.54744 c 0.71501,-0.71498 1.59536,-1.37504 2.64106,-1.98017 1.04567,-0.60504 2.13206,-1.11362 3.25917,-1.52573 1.12706,-0.41202 2.28185,-0.72799 3.46435,-0.94791 1.18246,-0.21983 2.32339,-0.32977 3.42282,-0.32982 2.42031,5e-5 4.74415,0.38483 6.97151,1.15436 2.22729,0.76963 4.20745,1.95211 5.94051,3.54744 1.73297,1.59543 3.1219,3.65784 4.1668,6.18725 1.04479,2.52949 1.56722,5.52722 1.56726,8.99323 z" style="font-size:82.5px;font-style:normal;font-weight:normal;text-align:start;text-anchor:start;fill:#000000;font-family:Keep Calm Med" id="path3148" inkscape:connector-curvature="0"></path>
      <path d="m 771.84166,418.65738 c -5e-5,3.57515 -0.66011,6.88886 -1.98017,9.94114 -1.32017,3.0523 -3.13543,5.69211 -5.44579,7.91942 -2.31045,2.22733 -5.01949,3.98762 -8.12713,5.28088 -3.10772,1.29326 -6.42143,1.93989 -9.94114,1.93989 -3.51977,0 -6.81964,-0.64663 -9.8996,-1.93989 -3.08,-1.29326 -5.77478,-3.06739 -8.08434,-5.32242 -2.30957,-2.25501 -4.12441,-4.90866 -5.44452,-7.96097 -1.32012,-3.05227 -1.98018,-6.33829 -1.98017,-9.85805 -10e-6,-3.46433 0.67348,-6.72307 2.02045,-9.77623 1.34696,-3.0531 3.17565,-5.7206 5.48607,-8.00251 2.3104,-2.28183 5.00559,-4.06898 8.08559,-5.36144 3.07997,-1.29237 6.35214,-1.93858 9.81652,-1.93863 3.51971,5e-5 6.83342,0.64626 9.94114,1.93863 3.10764,1.29246 5.81668,3.05233 8.12713,5.27961 2.31036,2.22737 4.12562,4.88102 5.44579,7.96097 1.32006,3.08002 1.98012,6.37988 1.98017,9.8996 z m -11.88103,0 c -4e-5,-2.03428 -0.35755,-3.93178 -1.07254,-5.69252 -0.71507,-1.76068 -1.69151,-3.30067 -2.92934,-4.61998 -1.23791,-1.31924 -2.68181,-2.35024 -4.33171,-3.093 -1.64996,-0.74268 -3.40983,-1.11404 -5.27961,-1.11408 -1.86984,4e-5 -3.62971,0.3714 -5.27962,1.11408 -1.64995,0.74276 -3.09343,1.77376 -4.33044,3.093 -1.23705,1.31931 -2.21308,2.8593 -2.92809,4.61998 -0.71504,1.76074 -1.07255,3.65824 -1.07254,5.69252 -1e-5,2.03432 0.3575,3.93183 1.07254,5.69252 0.71501,1.76073 1.69104,3.30072 2.92809,4.61998 1.23701,1.31929 2.68049,2.35028 4.33044,3.09299 1.64991,0.74274 3.40978,1.1141 5.27962,1.11409 1.86978,10e-6 3.62965,-0.37135 5.27961,-1.11409 1.6499,-0.74271 3.0938,-1.7737 4.33171,-3.09299 1.23783,-1.31926 2.21427,-2.85925 2.92934,-4.61998 0.71499,-1.76069 1.0725,-3.6582 1.07254,-5.69252 z" style="font-size:82.5px;font-style:normal;font-weight:normal;text-align:start;text-anchor:start;fill:#000000;font-family:Keep Calm Med" id="path3150" inkscape:connector-curvature="0"></path>
    </g>
    <g style="font-size:82.5px;font-style:normal;font-weight:normal;text-align:start;text-anchor:start;fill:#000000;font-family:Keep Calm Med" id="text3131">
      <path d="m 440.49814,333.29999 -11.88103,0 0,-28.54569 c -4e-5,-1.70529 -0.26104,-3.20416 -0.783,-4.49661 -0.52204,-1.29238 -1.20937,-2.3645 -2.062,-3.21636 -0.85269,-0.85179 -1.84299,-1.48415 -2.97089,-1.89709 -1.12796,-0.41286 -2.29701,-0.61931 -3.50715,-0.61935 -1.81445,4e-5 -3.54663,0.27488 -5.19654,0.82454 -1.64995,0.54974 -3.24533,1.31974 -4.78614,2.30999 l 0,35.64057 -11.9616,0 0,-68.39333 11.9616,0 0,23.42972 c 1.76069,-1.37462 3.79625,-2.39177 6.10668,-3.05145 2.31038,-0.65959 4.53729,-0.98941 6.68072,-0.98946 2.4757,5e-5 4.81338,0.39869 7.01305,1.19591 2.19959,0.79732 4.15207,2.00707 5.85743,3.62926 1.70528,1.62228 3.05308,3.65742 4.04343,6.10543 0.99024,2.44808 1.48539,5.34972 1.48544,8.70495 z" style="font-size:82.5px;font-style:normal;font-weight:normal;text-align:start;text-anchor:start;fill:#000000;font-family:Keep Calm Med" id="path3153" inkscape:connector-curvature="0"></path>
      <path d="m 488.33192,333.29999 -11.96159,0 0,-2.55799 c -2.0914,1.43006 -4.30571,2.42035 -6.64295,2.97089 -2.33729,0.55054 -4.74295,0.82581 -7.21699,0.82581 -2.31126,0 -4.40179,-0.34409 -6.27159,-1.03226 -1.86982,-0.68817 -3.49206,-1.67847 -4.86671,-2.97089 -1.37467,-1.29241 -2.43337,-2.81856 -3.17608,-4.57843 -0.74273,-1.75987 -1.11409,-3.71234 -1.11409,-5.85743 0,-2.69561 0.59124,-5.04714 1.77372,-7.0546 1.18248,-2.00742 2.79129,-3.68463 4.82644,-5.03162 2.03513,-1.34695 4.41393,-2.35067 7.13642,-3.01117 2.72245,-0.66045 5.65137,-0.99069 8.78677,-0.99072 l 6.84563,0 c -3e-5,-2.80468 -0.90725,-5.03201 -2.72164,-6.68197 -1.81445,-1.6499 -4.42698,-2.47487 -7.8376,-2.4749 -1.64995,3e-5 -3.35485,0.30258 -5.11471,0.90763 -1.75988,0.60512 -3.52017,1.70494 -5.28087,3.29944 l -7.0118,-7.09488 c 2.52945,-2.4203 5.45795,-4.29011 8.78552,-5.60943 3.32754,-1.31923 6.75203,-1.97887 10.27347,-1.97891 3.29984,4e-5 6.24219,0.52247 8.82706,1.56726 2.58481,1.0449 4.67449,2.39228 6.26907,4.04217 2.08966,2.08973 3.56083,4.427 4.41353,7.0118 0.85262,2.58487 1.27895,5.88473 1.27899,9.89959 z m -11.96159,-11.88103 0,-8.82706 -5.44578,0 c -1.64996,2e-5 -3.2038,0.10996 -4.66153,0.32982 -1.45777,0.2199 -2.72291,0.59126 -3.79543,1.11408 -1.07256,0.52287 -1.9248,1.19677 -2.55672,2.02172 -0.63196,0.82498 -0.94793,1.81486 -0.94792,2.96963 -10e-6,1.64994 0.6462,2.99733 1.93863,4.04216 1.2924,1.04486 2.95576,1.56728 4.99008,1.56727 1.76069,1e-5 3.50713,-0.27484 5.23934,-0.82455 1.73215,-0.54968 3.47859,-1.34737 5.23933,-2.39307 z" style="font-size:82.5px;font-style:normal;font-weight:normal;text-align:start;text-anchor:start;fill:#000000;font-family:Keep Calm Med" id="path3155" inkscape:connector-curvature="0"></path>
      <path d="m 540.47853,326.12202 c -2.42039,2.75102 -5.33547,4.84154 -8.74523,6.2716 -3.40984,1.43005 -6.98455,2.14508 -10.72414,2.14508 -3.46606,0 -6.73907,-0.63279 -9.81904,-1.89835 -3.08,-1.26556 -5.76093,-3.012 -8.04279,-5.23933 -2.28188,-2.22732 -4.08288,-4.88097 -5.40298,-7.96097 -1.32012,-3.07997 -1.98018,-6.40753 -1.98017,-9.98268 -1e-5,-3.51972 0.66005,-6.80574 1.98017,-9.85806 1.3201,-3.05225 3.10767,-5.70591 5.3627,-7.96097 2.25501,-2.25497 4.92251,-4.02869 8.00251,-5.32116 3.07996,-1.29237 6.37983,-1.93858 9.8996,-1.93862 3.62881,4e-5 7.07973,0.65968 10.35278,1.97891 3.27297,1.31932 6.11964,3.32676 8.54004,6.02234 l -8.00377,8.16742 c -1.21021,-1.59451 -2.68139,-2.91421 -4.41353,-3.95909 -1.73221,-1.04481 -3.83617,-1.56723 -6.31187,-1.56727 -1.81445,4e-5 -3.53278,0.38483 -5.155,1.15437 -1.62226,0.76961 -3.05231,1.80061 -4.29016,3.09299 -1.23788,1.29246 -2.21433,2.8186 -2.92934,4.57844 -0.71504,1.7599 -1.07256,3.63013 -1.07254,5.6107 -2e-5,1.98061 0.3575,3.85084 1.07254,5.61069 0.71501,1.75989 1.67761,3.28604 2.8878,4.57844 1.21016,1.29243 2.64021,2.32343 4.29016,3.09299 1.64991,0.76959 3.38209,1.15438 5.19654,1.15437 2.36492,10e-6 4.51,-0.56354 6.43524,-1.69064 1.92516,-1.12707 3.46515,-2.57097 4.61998,-4.3317 z" style="font-size:82.5px;font-style:normal;font-weight:normal;text-align:start;text-anchor:start;fill:#000000;font-family:Keep Calm Med" id="path3157" inkscape:connector-curvature="0"></path>
      <path d="m 591.6105,333.29999 -14.10667,0 -19.13956,-21.36772 0,21.36772 -12.12776,0 0,-68.39333 12.12776,0 0,40.92018 16.66466,-20.21209 13.85994,0 -19.55246,23.18298 z" style="font-size:82.5px;font-style:normal;font-weight:normal;text-align:start;text-anchor:start;fill:#000000;font-family:Keep Calm Med" id="path3159" inkscape:connector-curvature="0"></path>
      <path d="m 615.8333,333.05325 c -0.93493,0.43976 -1.99362,0.79727 -3.17608,1.07254 -1.1825,0.27527 -2.40568,0.41291 -3.66955,0.41291 -1.76073,0 -3.4522,-0.23415 -5.07442,-0.70244 -1.62225,-0.46829 -3.03846,-1.22486 -4.24862,-2.26971 -1.21019,-1.04484 -2.17278,-2.40608 -2.88781,-4.08371 -0.71503,-1.67762 -1.07254,-3.69891 -1.07254,-6.06388 l 0,-56.59286 12.12777,0 0,54.53086 c -2e-5,1.98061 0.39861,3.34226 1.1959,4.08497 0.79726,0.74273 1.74643,1.11409 2.84752,1.11409 1.37464,0 2.69392,-0.4129 3.95783,-1.23871 z" style="font-size:82.5px;font-style:normal;font-weight:normal;text-align:start;text-anchor:start;fill:#000000;font-family:Keep Calm Med" id="path3161" inkscape:connector-curvature="0"></path>
      <path d="m 660.42177,333.29999 -11.9616,0 0,-2.55799 c -2.09139,1.43006 -4.30571,2.42035 -6.64295,2.97089 -2.33729,0.55054 -4.74295,0.82581 -7.21699,0.82581 -2.31126,0 -4.40179,-0.34409 -6.27159,-1.03226 -1.86982,-0.68817 -3.49205,-1.67847 -4.86671,-2.97089 -1.37467,-1.29241 -2.43336,-2.81856 -3.17608,-4.57843 -0.74272,-1.75987 -1.11408,-3.71234 -1.11408,-5.85743 0,-2.69561 0.59124,-5.04714 1.77372,-7.0546 1.18247,-2.00742 2.79128,-3.68463 4.82643,-5.03162 2.03513,-1.34695 4.41393,-2.35067 7.13642,-3.01117 2.72245,-0.66045 5.65138,-0.99069 8.78677,-0.99072 l 6.84563,0 c -3e-5,-2.80468 -0.90724,-5.03201 -2.72163,-6.68197 -1.81445,-1.6499 -4.42698,-2.47487 -7.8376,-2.4749 -1.64996,3e-5 -3.35486,0.30258 -5.11471,0.90763 -1.75989,0.60512 -3.52018,1.70494 -5.28088,3.29944 l -7.01179,-7.09488 c 2.52944,-2.4203 5.45794,-4.29011 8.78551,-5.60943 3.32755,-1.31923 6.75203,-1.97887 10.27348,-1.97891 3.29984,4e-5 6.24219,0.52247 8.82705,1.56726 2.58481,1.0449 4.6745,2.39228 6.26908,4.04217 2.08965,2.08973 3.56082,4.427 4.41353,7.0118 0.85261,2.58487 1.27894,5.88473 1.27899,9.89959 z m -11.9616,-11.88103 0,-8.82706 -5.44578,0 c -1.64996,2e-5 -3.2038,0.10996 -4.66152,0.32982 -1.45777,0.2199 -2.72291,0.59126 -3.79544,1.11408 -1.07255,0.52287 -1.92479,1.19677 -2.55672,2.02172 -0.63196,0.82498 -0.94793,1.81486 -0.94791,2.96963 -2e-5,1.64994 0.64619,2.99733 1.93862,4.04216 1.29241,1.04486 2.95577,1.56728 4.99009,1.56727 1.76068,1e-5 3.50713,-0.27484 5.23933,-0.82455 1.73215,-0.54968 3.47859,-1.34737 5.23933,-2.39307 z" style="font-size:82.5px;font-style:normal;font-weight:normal;text-align:start;text-anchor:start;fill:#000000;font-family:Keep Calm Med" id="path3163" inkscape:connector-curvature="0"></path>
      <path d="m 715.37309,309.45737 c -5e-5,3.35527 -0.56359,6.5452 -1.69063,9.56978 -1.12714,3.0246 -2.70826,5.67826 -4.74335,7.96096 -2.03518,2.28272 -4.45553,4.09798 -7.26105,5.44579 -2.80559,1.34781 -5.88515,2.02171 -9.2387,2.02171 -2.09139,0 -4.04429,-0.28869 -5.85869,-0.86609 -1.81444,-0.57739 -3.51976,-1.49887 -5.11596,-2.76443 l 0,2.4749 -11.9616,0 0,-68.47389 12.04468,0 0,23.09989 c 1.37465,-1.10102 3.01073,-1.98138 4.90826,-2.64106 1.89748,-0.65959 3.89192,-0.98941 5.98331,-0.98946 2.91379,5e-5 5.74578,0.64626 8.49598,1.93863 2.75013,1.29247 5.19775,3.06618 7.34287,5.32116 2.14504,2.25506 3.86379,4.90871 5.15625,7.96097 1.29237,3.05232 1.93858,6.36603 1.93863,9.94114 z m -12.04468,0 c -3e-5,-2.20045 -0.32985,-4.20789 -0.98945,-6.02234 -0.65968,-1.81439 -1.58073,-3.36781 -2.76318,-4.66026 -1.18251,-1.29239 -2.58529,-2.28268 -4.20833,-2.97089 -1.62311,-0.68813 -3.4241,-1.03222 -5.40299,-1.03226 -1.26559,4e-5 -2.72333,0.26146 -4.37324,0.78427 -1.64996,0.52287 -3.02546,1.19636 -4.12651,2.02045 l 0,22.93625 c 2.58649,2.36497 5.50199,3.54745 8.74649,3.54744 1.86978,1e-5 3.6158,-0.35751 5.23807,-1.07254 1.62221,-0.71502 3.01114,-1.71874 4.1668,-3.01117 1.15558,-1.29241 2.06321,-2.8324 2.72289,-4.61998 0.6596,-1.78755 0.98942,-3.75387 0.98945,-5.89897 z" style="font-size:82.5px;font-style:normal;font-weight:normal;text-align:start;text-anchor:start;fill:#000000;font-family:Keep Calm Med" id="path3165" inkscape:connector-curvature="0"></path>
    </g>
  </g>
</svg>
