<?xml version="1.0" encoding="UTF-8" standalone="no"?>
<!-- Created with Inkscape (http://www.inkscape.org/) -->
<svg width="51.072258mm" height="51.072254mm" viewBox="0 0 51.072258 51.072254" version="1.1" id="svg8894" sodipodi:docname="pi-logotype2.svg" inkscape:version="1.4 (e7c3feb100, 2024-10-09)" inkscape:export-filename="pi-logotype.png" inkscape:export-xdpi="179.04045" inkscape:export-ydpi="179.04045" xmlns:inkscape="http://www.inkscape.org/namespaces/inkscape" xmlns:sodipodi="http://sodipodi.sourceforge.net/DTD/sodipodi-0.dtd" xmlns="http://www.w3.org/2000/svg" xmlns:svg="http://www.w3.org/2000/svg">
  <sodipodi:namedview id="namedview8896" pagecolor="#ffffff" bordercolor="#000000" borderopacity="0.25" inkscape:showpageshadow="2" inkscape:pageopacity="0.0" inkscape:pagecheckerboard="0" inkscape:deskcolor="#d1d1d1" inkscape:document-units="mm" showgrid="false" inkscape:zoom="2.5877449" inkscape:cx="105.30404" inkscape:cy="88.49404" inkscape:window-width="2556" inkscape:window-height="1365" inkscape:window-x="0" inkscape:window-y="54" inkscape:window-maximized="1" inkscape:current-layer="layer1"/>
  <defs id="defs8891"/>
  <g inkscape:label="Layer 1" inkscape:groupmode="layer" id="layer1" transform="translate(-45.894247,-91.297364)">
    <path id="path42241-0-4-6-2-7-5-3-1-6-7-91" style="fill:#2a6773;fill-opacity:1;stroke:none;stroke-width:0.357;stroke-miterlimit:7.1;stop-color:#000000" d="m 64.12901,94.28477 a 13.002485,13.002485 0 0 0 -10.31564,5.08703 13.002419,13.002419 0 0 1 0,5.1e-4 13.002485,13.002485 0 0 0 -0.94465,1.41335 13.002485,13.002485 0 0 0 -0.40101,0.75086 13.002419,13.002419 0 0 1 0,5.2e-4 13.002485,13.002485 0 0 0 -0.89814,2.38487 13.002419,13.002419 0 0 1 0,5.1e-4 13.002485,13.002485 0 0 0 -0.19327,0.82786 13.002419,13.002419 0 0 0 0,10e-4 13.002485,13.002485 0 0 0 -0.13849,0.83871 13.002419,13.002419 0 0 1 0,5.2e-4 13.002485,13.002485 0 0 0 -0.0832,0.84646 13.002419,13.002419 0 0 1 0,5.1e-4 13.002485,13.002485 0 0 0 0,1.70016 13.002419,13.002419 0 0 1 0,5.2e-4 13.002485,13.002485 0 0 0 0.0832,0.84594 13.002419,13.002419 0 0 0 0,0.001 13.002485,13.002485 0 0 0 0.13849,0.83871 13.002419,13.002419 0 0 1 0,5.2e-4 13.002485,13.002485 0 0 0 0.19327,0.82785 13.002419,13.002419 0 0 0 0,0.001 13.002485,13.002485 0 0 0 0.24702,0.81338 13.002419,13.002419 0 0 1 0,5.2e-4 13.002485,13.002485 0 0 0 0.29972,0.79582 13.002419,13.002419 0 0 1 0,5.2e-4 13.002485,13.002485 0 0 0 0.3514,0.77463 13.002419,13.002419 0 0 1 0,5.1e-4 13.002485,13.002485 0 0 0 0.40101,0.74983 13.002419,13.002419 0 0 1 0,5.1e-4 13.002485,13.002485 0 0 0 0.44907,0.72192 13.002419,13.002419 0 0 0 1.03559,1.34979 13.002485,13.002485 0 0 0 0.58136,0.62064 13.002419,13.002419 0 0 0 9.19427,3.80907 v 5.1e-4 h 1.63815 v -0.002 h 25.96689 a 26.00497,26.00497 0 0 0 -0.004,-0.46922 26.004837,26.004837 0 0 0 -0.14831,-2.34198 26.00497,26.00497 0 0 1 0,-5.1e-4 26.004837,26.004837 0 0 0 -0.35863,-2.31872 26.00497,26.00497 0 0 1 0,-5.2e-4 26.004837,26.004837 0 0 0 -0.0966,-0.45889 26.00497,26.00497 0 0 1 0,-5.1e-4 26.004837,26.004837 0 0 0 -1.99677,-5.75314 26.00497,26.00497 0 0 0 -0.42478,-0.83716 26.004837,26.004837 0 0 0 -6.1402,-7.63933 26.00497,26.00497 0 0 0 -0.72657,-0.59479 26.004837,26.004837 0 0 0 -5.18986,-3.18637 26.00497,26.00497 0 0 0 -0.42737,-0.19327 26.004837,26.004837 0 0 1 -5.1e-4,0 26.00497,26.00497 0 0 0 -0.43098,-0.18552 26.004837,26.004837 0 0 0 -2.65204,-0.94723 26.00497,26.00497 0 0 0 -0.45113,-0.12971 26.004837,26.004837 0 0 0 -1.36685,-0.34003 26.00497,26.00497 0 0 0 -0.4594,-0.0966 26.004837,26.004837 0 0 0 -5.09271,-0.51057 v -5.1e-4 z m 8.54935,28.99926 a 8.5496979,8.0491571 0 0 0 -7.4042,4.02456 8.5496979,8.0491571 0 0 0 0,8.04912 8.5496979,8.0491571 0 0 0 7.4042,4.02456 h 2.99517 v -0.001 c 8.85389,-0.0432 16.01814,-7.23315 16.01814,-16.09721 H 75.67353 Z"/>
  </g>
</svg>