<?xml version="1.0" encoding="UTF-8" standalone="no"?>
<!-- Created with Inkscape (http://www.inkscape.org/) -->

<svg
   id="svg5"
   width="3840"
   height="2160"
   version="1.1"
   viewBox="0 0 1016 571.5"
   sodipodi:docname="phosh.mobi.e.V.svg"
   inkscape:version="1.4 (e7c3feb100, 2024-10-09)"
   xmlns:inkscape="http://www.inkscape.org/namespaces/inkscape"
   xmlns:sodipodi="http://sodipodi.sourceforge.net/DTD/sodipodi-0.dtd"
   xmlns="http://www.w3.org/2000/svg"
   xmlns:svg="http://www.w3.org/2000/svg">
  <defs
     id="defs1" />
  <sodipodi:namedview
     id="namedview1"
     pagecolor="#ffffff"
     bordercolor="#666666"
     borderopacity="1.0"
     inkscape:showpageshadow="2"
     inkscape:pageopacity="0.0"
     inkscape:pagecheckerboard="0"
     inkscape:deskcolor="#d1d1d1"
     inkscape:zoom="0.21828704"
     inkscape:cx="1857.6458"
     inkscape:cy="1179.6394"
     inkscape:window-width="1920"
     inkscape:window-height="1196"
     inkscape:window-x="0"
     inkscape:window-y="0"
     inkscape:window-maximized="1"
     inkscape:current-layer="svg5" />
  <rect
     style="color:#000000;overflow:visible;fill:#cd0053;fill-opacity:1;stroke:none;stroke-width:0.699855"
     id="rect1"
     width="515.79114"
     height="426.74924"
     x="188.28787"
     y="155.40349"
     ry="42.006165"
     inkscape:export-filename="/tmp/rect1.png"
     inkscape:export-xdpi="59.013611"
     inkscape:export-ydpi="59.013611" />
  <g
     id="layer1"
     transform="matrix(0.72021109,0,0,0.72021109,80.316173,162.97523)">
    <path
       id="path1817"
       d="m 333.32,28.308 c -0.18215,-0.001 -0.40816,0.039 -0.63169,0.12311 -0.44703,0.16689 -1.7212,0.18119 -2.8314,0.0303 -1.1102,-0.14955 -2.1815,-0.15085 -2.3834,-0.002 -0.20186,0.14825 -1.1042,0.29389 -2.0026,0.3225 -0.89838,0.0303 -1.7964,0.21717 -1.9981,0.41874 -0.20174,0.20156 -0.74759,0.36498 -1.2119,0.36498 -0.46426,0 -0.84449,0.16559 -0.84449,0.36759 0,0.20199 -0.24825,0.36715 -0.55105,0.36715 -0.30278,0 -0.54881,0.15084 -0.54881,0.33377 0,0.18293 -0.35771,0.23928 -0.79297,0.12527 -0.54222,-0.14174 -0.70854,-0.0737 -0.52865,0.21717 0.23455,0.37973 -0.20148,0.58987 -0.97217,0.4682 -0.15142,-0.026 -0.27552,0.2085 -0.27552,0.51743 0,0.30907 -0.28423,0.6731 -0.63169,0.80644 -0.34747,0.13351 -1.0856,0.70552 -1.6397,1.2723 -0.55409,0.56681 -1.1751,1.0304 -1.3799,1.0304 -0.20481,0 -0.47592,0.41397 -0.60257,0.9184 -0.12667,0.50465 -0.37782,0.91619 -0.55776,0.91619 -0.48576,0 -1.7938,1.3974 -1.8032,1.9264 -0.005,0.25228 -0.33104,0.87297 -0.72576,1.3776 -0.39472,0.5046 -0.72128,1.0895 -0.72577,1.3014 -0.005,0.21197 -0.20447,0.58077 -0.44352,0.81983 -0.23906,0.23928 -0.4719,0.7278 -0.51745,1.0842 -0.0456,0.35631 -0.16017,0.97839 -0.25536,1.3821 -0.0952,0.40356 -0.28982,1.4359 -0.4323,2.2938 -0.14248,0.85788 -0.42957,1.5591 -0.63842,1.5591 -0.21908,0 -0.17617,0.24404 0.10082,0.57795 0.30833,0.37148 0.34643,0.66776 0.10976,0.82659 -0.43955,0.29476 -0.35116,2.3472 0.17248,4.0096 0.3039,0.96482 0.27673,1.1917 -0.14786,1.1917 -0.70594,0 -0.66248,0.25011 0.20833,1.185 0.83219,0.89326 0.93848,1.3843 0.29792,1.3843 -0.24045,0 -0.11851,0.24535 0.27331,0.54431 0.62024,0.47323 0.6428,0.59538 0.1635,0.94532 -0.42632,0.31123 -0.44538,0.44405 -0.0806,0.59134 0.25904,0.10447 0.96245,1.1613 1.5613,2.3476 1.1726,2.3228 1.2916,2.7134 0.72129,2.361 -0.20186,-0.12484 -0.36736,-0.0915 -0.36736,0.0737 0,0.16515 0.36884,0.53152 0.81984,0.81315 0.7982,0.49845 0.80071,0.51847 0.0919,0.77951 -0.65809,0.24231 -0.63208,0.29346 0.27998,0.53313 0.5551,0.14608 1.0102,0.42177 1.0102,0.6138 0,0.19202 -0.1655,0.24794 -0.36737,0.1231 -0.20186,-0.12484 -0.36736,-0.0524 -0.36736,0.16125 0,0.21371 0.13416,0.3897 0.29792,0.3897 0.68385,0 1.8699,1.4987 1.6464,2.081 -0.1567,0.40833 -0.0935,0.5209 0.19489,0.34287 0.27135,-0.16775 0.43009,-0.003 0.43009,0.44579 0,0.39099 0.27898,0.93703 0.62048,1.2141 0.53559,0.43447 0.57775,0.42783 0.29793,-0.0473 -0.27608,-0.4685 -0.23659,-0.47825 0.2733,-0.065 0.32953,0.26702 0.52167,0.69052 0.42563,0.94081 -0.096,0.25011 0.16463,0.76182 0.58016,1.138 0.41557,0.37625 0.61174,0.77795 0.43457,0.89378 -0.17716,0.11573 0.009,0.54153 0.4144,0.94527 0.72766,0.72494 0.73403,0.72494 0.47713,0.009 -0.23013,-0.64158 -0.15258,-0.62455 0.672,0.14998 0.51275,0.48167 1.03,1.3966 1.1491,2.0317 0.22016,1.1735 1.3742,2.2325 2.0071,1.8413 0.19593,-0.12094 0.2453,0.0481 0.11422,0.38969 -0.12848,0.33464 -0.0186,0.74124 0.24639,0.90501 0.38301,0.23667 0.35688,0.4183 -0.12991,0.90496 -0.33551,0.3355 -0.60929,0.50582 -0.60929,0.37842 0,-0.12744 -0.17361,-0.12224 -0.38527,0.009 -0.26763,0.16558 -0.26589,0.38015 0.006,0.70781 0.38276,0.46126 0.16459,1.665 -0.30239,1.6666 -0.12978,3.5e-4 -0.25519,0.51375 -0.27777,1.1402 -0.0225,0.62641 -0.24136,1.263 -0.48832,1.4157 -0.247,0.15258 -0.4775,0.42567 -0.51073,0.60482 -0.0334,0.17946 -0.18462,0.2835 -0.33598,0.23278 -0.15142,-0.0503 -0.27552,0.47699 -0.27552,1.1716 0,0.69459 -0.16325,1.3649 -0.36511,1.4896 -0.20187,0.12484 -0.36737,0.62954 -0.36737,1.1223 0,0.55164 -0.21201,0.89599 -0.55105,0.89599 -0.30278,0 -0.55105,0.25879 -0.55105,0.57349 0,0.36021 0.17053,0.4691 0.45921,0.29562 0.35527,-0.21326 0.36333,-0.15648 0.0338,0.25315 -0.23425,0.29086 -0.54175,1.1493 -0.68321,1.9062 -0.14144,0.75693 -0.39524,1.3754 -0.56225,1.3754 -0.16702,0 -0.41484,0.74258 -0.55105,1.6509 -0.13616,0.90834 -0.39451,1.6531 -0.57345,1.6531 -0.1789,0 -0.3248,0.48606 -0.3248,1.0797 0,0.59364 -0.1655,1.1812 -0.36737,1.3059 -0.20187,0.12484 -0.36511,0.55164 -0.36511,0.94978 0,0.39793 -0.24717,0.81835 -0.54882,0.93409 -0.30161,0.11574 -0.45313,0.36585 -0.33598,0.55554 0.11712,0.18943 0.0195,0.57734 -0.2173,0.86244 -0.81406,3.2159 -2.2973,6.4531 -2.753,9.2983 -0.92455,2.4332 -1.1473,5.2532 -1.8772,7.8178 -0.1759,0.27482 -0.3597,0.83049 -0.40768,1.2342 -1.252,5.7753 -2.6151,10.833 -3.6042,16.184 -0.0845,0.98922 -0.30859,2.2123 -0.49953,2.7172 -0.19095,0.5049 -0.4733,1.7437 -0.62722,2.753 -0.15388,1.0092 -0.32189,2.0828 -0.37408,2.3857 -0.0522,0.303 -0.20933,1.5035 -0.34942,2.6701 -0.45579,2.0846 -0.63263,2.5966 -1.1044,4.4151 -0.39468,3.9917 -0.94701,7.7198 -1.2678,8.5636 -0.50793,3.1445 -1.1335,6.624 -1.7495,9.2312 -0.24253,2.7364 -0.15913,4.9108 -0.44352,7.2286 -0.41999,3.3988 -0.78566,6.2768 -0.81314,6.3953 -0.0277,0.11834 0.0789,0.76556 0.23746,1.4358 0.90802,1.7644 3.3496,2.7444 4.9863,3.7342 2.5042,1.2986 5.494,2.3067 7.3428,3.3085 12.727,3.9018 23.747,7.735 34.335,8.1537 0.62924,-0.12007 1.3259,0.0932 2.0452,0.62498 0.60009,0.44366 1.2899,0.73452 1.5322,0.64739 0.86235,-0.30993 1.7248,0.48684 1.7248,1.5926 0,5.1465 -9.0402,10.246 -21.287,12.007 -3.9828,0.5727 -6.6822,0.69754 -13.763,0.63616 -4.8445,-0.0434 -10.13,-0.2241 -11.744,-0.40313 -1.6148,-0.17902 -4.086,-0.32467 -5.4926,-0.32467 h -2.5582 l -0.28674,1.6509 c -0.15796,0.90835 -0.32827,4.2946 -0.37855,7.5243 l -0.0918,5.8711 2.3856,0.22627 c 1.312,0.12441 3.7902,0.34591 5.506,0.49282 1.7158,0.14694 3.6147,0.32683 4.2202,0.39879 16.39,0.60396 35.511,2.4446 50.739,2.6656 3.3807,0.0303 6.5601,0.21284 7.065,0.40313 0.5049,0.19029 1.5253,0.44609 2.2691,0.56898 0.94177,0.15561 1.3563,0.41483 1.362,0.85346 0.004,0.34634 0.0841,1.094 0.17686,1.6621 0.15302,0.93374 -0.1166,1.2448 -2.8001,3.2346 -1.6326,1.2105 -4.3854,3.0378 -6.1175,4.059 -1.7321,1.0212 -3.561,2.1464 -4.0657,2.5021 -1.3564,0.9562 -9.3779,5.083 -11.525,5.9293 -1.0226,0.40313 -2.7321,1.1328 -3.8013,1.6218 -2.1797,0.94618 -4.6547,1.5498 -6.5118,2.2131 -2.0185,0.72369 -4.2462,1.4499 -4.9527,1.6151 -0.70648,0.16515 -1.9058,0.48787 -2.6634,0.71683 -0.75763,0.22888 -1.8312,0.49082 -2.3856,0.58237 -0.55442,0.0915 -2.1644,0.40573 -3.5773,0.69668 -2.2309,0.4597 -4.9159,0.82026 -11.01,1.4807 -0.80742,0.0876 -3.4489,0.25488 -5.8711,0.36975 -6.2299,0.29563 -8.7618,0.54691 -9.1236,0.90721 -0.89867,0.89495 0.41544,19.683 1.4291,20.434 0.94666,0.70123 15.921,0.22238 25.861,-0.82658 5.3884,0.25011 9.6181,-2.0575 14.919,-2.1594 0.37296,0.0707 1.0324,0.13914 1.465,0.15475 0.43256,0.0173 0.88701,0.29259 1.0102,0.61375 0.30257,0.78853 -0.76006,2.9372 -1.8928,3.8282 -0.50625,0.39837 -0.80595,0.72577 -0.66753,0.72577 0.3792,0 -1.6239,2.5836 -3.0868,3.9828 -1.8546,1.7739 -4.775,3.9027 -7.0359,5.1274 l -1.9578,1.0595 -4.2224,-2.119 c -4.5242,-2.2717 -9.7645,-4.3858 -13.142,-5.3044 -7.2267,-1.9653 -9.2616,-2.4228 -13.158,-2.9479 -13.353,-1.7994 -24.463,-0.79247 -36.611,3.3153 -4.9052,1.6586 -14.729,6.4002 -17.096,8.2522 -0.70649,0.55281 -1.6514,1.1979 -2.1011,1.4336 -2.121,1.112 -8.4826,6.2531 -11.648,9.4126 -2.5965,2.5917 -6.2003,6.6707 -6.9867,7.9095 -0.20191,0.31817 -1.0795,1.64 -1.9511,2.9367 -2.7269,4.0573 -4.572,8.2236 -6.243,14.101 -2.6439,9.2994 -0.81124,20.537 4.8183,29.338 5.3397,7.0106 2.9859,0.47708 3.9828,5.6516 l 3.7341,3.6199 c 4.9146,4.765 9.0011,7.807 13.64,10.15 1.1411,0.5763 1.627,0.98914 1.2858,1.0954 -5.0416,0.84506 -9.4871,1.3377 -14.86,2.1168 -22.56,3.5869 -21.389,4.0319 -41.555,7.3115 12.179,55.319 23.559,99.884 36.499,146.98 207.22,-38.959 434.12,-72.492 617.59,-100.94 -5.297,-47.587 -8.1334,-63.741 -16.316,-139.82 -19.633,2.6338 -39.387,6.4742 -62.042,9.5672 -4.7726,0.63764 -11.863,1.7044 -13.474,2.0272 l -1.9152,0.38535 -1.9242,3.6759 c -1.0578,2.0227 -2.6018,4.4087 -3.4318,5.2999 -2.5071,2.6922 -3.7377,2.0396 -4.5584,-2.417 -0.24144,-1.312 -0.66143,-3.2109 -0.93409,-4.2202 -0.27265,-1.0093 -0.78176,-3.531 -1.1312,-5.6023 -0.60972,-3.6138 -0.60929,-3.8547 0.0347,-5.9854 0.80175,-2.648 2.6134,-4.6941 5.1476,-5.8151 2.8999,-1.2828 6.5072,-0.86569 7.6542,0.88481 1.1284,1.7221 1.1254,6.9977 -0.004,12.022 -0.28999,1.288 0.11791,1.2892 2.7574,0.0173 2.8214,-1.3593 7.1276,-4.5609 9.7307,-7.2375 1.9225,-1.977 3.1874,-3.7646 7.5265,-10.622 0.62107,-0.98164 1.1312,-2.1458 1.1312,-2.5872 0,-0.44149 0.14131,-0.95967 0.316,-1.1514 0.39836,-0.43724 2.0349,-4.9407 2.5939,-7.139 2.2275,-8.7603 1.5074,-17.806 -1.9622,-24.645 -0.91337,-1.8002 -2.2537,-4.1653 -2.977,-5.2551 -1.7848,-2.6887 -7.0466,-7.8406 -10.291,-10.073 -5.3089,-3.654 -12.711,-7.0205 -18.223,-8.2881 -1.4694,-0.33811 -3.0034,-0.69312 -3.4071,-0.79074 -0.40356,-0.0975 -2.6314,-0.42827 -4.9527,-0.73469 -5.5752,-0.73621 -12.72,-0.49997 -18.624,0.61822 -2.4712,0.46811 -4.5897,0.75498 -4.7086,0.63621 -0.11877,-0.11878 -0.0347,-1.7579 0.18379,-3.6423 1.4708,-12.573 3.3414,-32.19 4.1575,-43.613 0.55116,-7.7148 0.52433,-27.778 -0.0447,-33.764 -0.94154,-9.9136 -1.6858,-14.933 -2.8874,-19.452 -0.29519,-1.1101 -0.66928,-2.5953 -0.83101,-3.3018 -0.89612,-3.9146 -2.1709,-7.0829 -5.3918,-13.395 -2.0892,-4.0948 -7.0118,-11.939 -8.241,-13.131 -0.85373,-0.82819 -1.321,-2.5621 -0.74146,-2.7552 0.23365,-0.078 0.42567,-0.37496 0.42567,-0.66083 0,-0.28609 0.13308,-0.51969 0.29563,-0.51969 0.40096,0 3.7582,-4.4594 5.3447,-7.0986 3.0499,-5.0737 4.2234,-11.847 3.0262,-17.466 -0.76334,-3.5832 -3.0754,-8.1817 -5.665,-11.265 -1.7199,-2.0479 -2.654,-2.7769 -5.3268,-4.1552 l -3.2391,-1.6711 h -4.834 c -4.3709,0 -5.1128,0.0988 -7.7684,1.0394 -6.0937,2.1584 -11.551,5.7283 -16.782,10.976 l -2.8359,2.8471 -3.4855,-1.6509 c -1.9169,-0.90769 -3.6269,-1.6509 -3.7991,-1.6509 -0.17209,0 -1.3384,-0.4157 -2.5917,-0.92516 -2.8366,-1.1525 -14.139,-4.5786 -15.105,-4.5786 -0.4473,0 -0.77202,0.30603 -0.87137,0.82433 -0.0871,0.45415 -0.5183,2.9738 -0.95876,5.5978 -1.8077,10.77 -6.0764,22.864 -10.557,29.911 -1.6587,2.6088 -4.82,6.4765 -7.6296,9.3342 -3.4254,3.4841 -6.7362,4.6707 -9.314,3.3376 -1.1954,-0.61818 -3.0956,-2.8952 -3.5012,-4.1956 -0.47075,-1.5093 -0.45662,-5.8455 0.0303,-8.4113 0.58562,-3.0973 1.4413,-11.436 1.8503,-18.048 0.35328,-5.7119 0.59811,-22.661 0.34721,-23.997 -0.13914,-0.74258 -0.55683,-1.4851 -0.95875,-1.7002 -0.39229,-0.2098 -3.1531,-0.79954 -6.1332,-1.3104 -2.9801,-0.51089 -7.3175,-1.2582 -9.6389,-1.6599 -2.3213,-0.40183 -4.7973,-0.81107 -5.5038,-0.90943 -2.8772,-0.40096 -6.8462,-0.97145 -7.7079,-1.1088 -0.50465,-0.0806 -1.4955,-0.22888 -2.202,-0.32944 -2.044,-0.29129 -16.093,-1.9405 -18.718,-2.1975 -1.312,-0.12831 -3.2937,-0.38102 -4.4039,-0.56221 -1.1102,-0.1812 -3.0919,-0.42134 -4.4039,-0.53313 -2.7802,-0.23711 -4.4658,-0.40617 -8.9915,-0.90275 -1.8167,-0.1994 -4.6236,-0.47249 -6.2385,-0.60704 -1.6148,-0.13437 -3.3504,-0.29259 -3.8551,-0.34938 -0.5046,-0.0568 -2.3208,-0.19853 -4.0365,-0.316 -1.7157,-0.11747 -3.8004,-0.30386 -4.6324,-0.4144 -1.5622,-0.2072 -10.767,-0.94726 -12.067,-0.96993 -0.40356,-0.009 -2.8797,-0.16386 -5.5038,-0.34722 -7.7726,-0.54253 -10.377,-0.68506 -15.597,-0.85567 -4.3828,-0.14305 -16.702,-0.27049 -21.309,-0.21934 l -1.6733,0.0217 -0.41873,1.7427 c -0.46937,1.9604 -0.73639,4.1394 -1.0035,8.1582 -0.10056,1.5091 -0.37148,3.7368 -0.60257,4.9527 -0.23147,1.2158 -0.4737,3.119 -0.53759,4.2292 -0.0637,1.1102 -0.20243,3.5056 -0.3069,5.3223 -0.1049,1.8167 -0.28349,6.6053 -0.39662,10.642 -0.21631,7.7266 -0.51376,10.329 -1.1693,10.199 -0.21847,-0.0434 -0.60348,0.41917 -0.85567,1.0282 -3.9293,5.8476 -8.5481,-10.934 -9.0273,-15.447 -0.75259,-8.6748 -3.1985,-12.792 -2.9501,-21.211 0.0589,-1.8574 -0.013,-3.378 -0.16342,-3.378 -0.14868,0 -0.22541,-0.86673 -0.17036,-1.9264 0.1023,-1.9651 -0.48336,-3.7296 -1.3328,-4.0141 -0.89022,-0.29823 -8.4662,0.22974 -9.1237,0.63617 -0.22671,0.14001 -0.48202,3.3277 -0.90496,11.359 -0.1062,2.0186 -0.26095,4.5795 -0.34505,5.6897 -0.0841,1.1102 -0.18162,3.6689 -0.215,5.6875 -1.1684,7.8821 2.4868,31.45 -2.0384,35.977 -1.1962,1.1086 -1.8278,1.436 -2.4753,0.4704 -11.788,-13.053 -14.758,-32.755 -16.592,-48.842 0.0585,-0.73751 -0.0767,-1.4307 -0.29996,-1.5389 -0.27222,-0.13177 -0.24101,-0.27092 0.0941,-0.4235 0.41873,-0.19073 0.4183,-0.27699 0.004,-0.53313 -0.33507,-0.2072 -0.474,-0.98697 -0.43217,-2.4125 0.0468,-1.5954 -0.12007,-2.3566 -0.68319,-3.1473 -0.7145,-1.0034 -0.82802,-1.0368 -3.0017,-0.82659 -1.243,0.12007 -3.582,0.28913 -5.1969,0.37409 -1.6148,0.085 -3.6792,0.33507 -4.5876,0.55554 -0.90834,0.22063 -2.1678,0.31903 -2.8001,0.21933 -0.6323,-0.0997 -1.2942,-0.0477 -1.4695,0.11661 -0.24881,0.23321 -5.769,1.3777 -9.6769,2.0048 -0.303,0.0486 -1.7307,0.44578 -3.1741,0.88481 -2.9036,0.88311 -4.442,0.6659 -4.7937,-0.67874 -0.10446,-0.39922 -0.33637,-0.63473 -0.51522,-0.52419 -0.17903,0.11053 -0.32467,0.0568 -0.32467,-0.11878 0,-0.17555 -0.50907,-0.83985 -1.1312,-1.4761 -0.67683,-0.6923 -1.0218,-1.3343 -0.85793,-1.5994 0.18986,-0.3069 0.0802,-0.36888 -0.35632,-0.20156 -0.37668,0.14434 -0.53837,0.0954 -0.40313,-0.12311 0.28046,-0.45345 -0.54764,-1.279 -1.2836,-1.279 -0.29996,0 -0.60491,-0.30257 -0.67648,-0.67427 -0.18119,-0.94168 -1.4717,-2.1562 -1.9668,-1.8503 -0.24925,0.15432 -0.30907,0.0876 -0.14998,-0.17035 0.15778,-0.25489 0.0217,-0.42351 -0.34505,-0.42351 -0.33377,0 -0.68545,-0.30863 -0.78402,-0.68545 -0.0984,-0.37668 -0.78506,-1.0034 -1.5255,-1.3933 -0.74042,-0.3897 -1.3462,-0.94151 -1.3462,-1.2253 0,-0.28393 -0.41397,-0.61332 -0.9184,-0.73249 -0.50465,-0.1192 -0.91618,-0.4466 -0.91618,-0.72576 0,-0.27916 -0.45658,-0.62862 -1.0125,-0.7773 -0.93474,-0.24968 -2.5122,-1.3348 -4.0097,-2.7574 -0.33924,-0.3225 -0.76895,-0.49308 -0.95424,-0.37842 -0.18526,0.11443 -0.65108,-0.0841 -1.0349,-0.44132 -0.92199,-0.8578 -3.0283,-1.8928 -3.8506,-1.8928 -0.36078,0 -0.74182,-0.13958 -0.84673,-0.30907 -0.10495,-0.16992 -1.2739,-0.60083 -2.5962,-0.95875 -1.3223,-0.35805 -2.4905,-0.79213 -2.5962,-0.96322 -0.0529,-0.0854 -0.19194,-0.12874 -0.37408,-0.13004 z m 70.635,122.29 c 0.62845,0.0347 1.2971,0.16732 2.1415,0.23537 2.0629,0.27136 3.5367,2.0445 4.5047,2.921 0.61717,1.2399 1.3912,1.8198 1.6442,3.1652 1.3107,2.1974 1.3379,4.8291 1.7517,6.9732 0.16299,0 0.20634,3.1242 0.0962,6.9418 -0.15865,5.5095 -0.35111,7.4111 -0.92962,9.2222 -0.40096,1.255 -0.72802,2.839 -0.72802,3.5191 -0.7884,2.655 -2.2797,4.9664 -4.9482,6.1601 -1.3556,0.562 -3.6219,0.6304 -5.2842,0.15692 v -0.002 c -0.68233,-0.19463 -1.6732,-0.61978 -2.2019,-0.94752 -2.0471,-1.3725 -3.4002,-3.4773 -4.6615,-5.2551 -0.55195,-1.7034 -1.3843,-3.0057 -1.5635,-4.4868 0.0446,-0.66365 -0.0473,-1.413 -0.20373,-1.6666 0.0433,-0.76166 0.2267,-1.4526 0.2085,-2.0048 0.0867,-0.72767 0.13784,-3.901 0.32033,-4.8272 -0.0507,-1.1433 0.17253,-1.9155 0.35155,-3.0084 0,-0.65419 0.13828,-1.2733 0.3069,-1.3776 0.7809,-2.4801 1.1325,-5.2274 1.4806,-6.9172 0.16429,-0.79681 0.59559,-1.1962 0.77956,-1.8413 1.6264,-2.5739 3.2083,-5.9218 5.0289,-6.5857 0.68878,-0.33941 1.2778,-0.40703 1.9062,-0.37408 z m 207.26,16.966 c 1.9546,-7.4e-4 4.5754,1.2393 6.0145,2.8471 0.80257,0.89677 1.4605,1.9108 1.4605,2.2534 0,0.34288 0.16819,0.793 0.37408,0.99907 1.2422,1.2422 0.68069,9.8518 -1.0864,16.655 -1.4407,5.5465 -1.5974,6.0396 -2.7373,8.595 -2.0313,4.5535 -5.2592,7.1634 -8.1111,6.5588 -2.0718,-0.43919 -3.3509,-1.0512 -4.6593,-2.2333 -2.4473,-2.211 -3.589,-5.2643 -3.5953,-9.6187 -0.003,-2.4685 0.31253,-4.4862 2.016,-12.88 0.70066,-3.4528 2.4254,-7.6748 3.8842,-9.5067 1.2848,-1.6135 4.8929,-3.6686 6.4401,-3.6692 z m -107.1,40.213 c 4.5938,0.026 8.4665,0.10577 10.893,0.24405 14.093,0.42827 27.488,2.5588 40.188,6.1645 4.3966,1.1121 13.151,6.2631 14.719,8.66 0.28133,0.42957 0.9539,1.4411 1.4964,2.249 0.54245,0.80795 1.2681,2.433 1.6106,3.6109 1.0576,3.6381 0.27655,9.6587 -1.7316,13.36 -2.4028,4.4284 -8.1061,10.771 -13.709,15.243 -11.98,9.5627 -33.808,20.761 -48.629,24.945 -4.1749,1.1787 -10.217,1.5146 -13.946,0.77505 -3.9516,-0.78367 -7.987,-2.1317 -12.365,-4.1284 -1.0472,-0.47768 -1.9979,-0.86915 -2.1124,-0.86915 -0.42957,0 -9.4476,-5.1899 -11.662,-6.7112 -10.714,-7.3617 -15.918,-11.562 -23.729,-19.159 -2.6993,-2.6254 -5.846,-5.9298 -6.9934,-7.3428 -2.2967,-2.8283 -4.4285,-5.9158 -4.4285,-6.411 0,-0.17512 -0.1244,-0.37192 -0.27568,-0.43906 -0.35328,-0.15692 -1.8687,-3.2541 -2.0474,-4.1844 -0.075,-0.39056 -0.24491,-0.99976 -0.37625,-1.353 -0.56655,-1.5248 -0.67609,-2.0338 -0.8467,-3.9447 -0.27612,-3.0954 1.3024,-7.4335 3.7005,-10.17 0.99699,-1.1376 4.9896,-4.1441 5.5038,-4.1441 0.10707,0 1.2309,-0.47326 2.4976,-1.0528 4.2135,-1.9278 13.023,-3.7945 21.02,-4.4554 7.1717,-0.5926 27.44,-0.96977 41.221,-0.88706 z m 178.72,35.48 c 0.28262,0.13264 -0.35285,0.86148 -1.7674,1.96 -4.4656,3.4685 -6.5597,5.2286 -8.7921,7.3832 -1.312,1.2662 -2.6339,2.2957 -2.9367,2.2893 -0.303,-0.009 -1.1926,-0.34851 -1.9757,-0.76161 -2.302,-1.2141 -5.5985,-4.6823 -6.113,-6.4311 -1.0996,-3.7371 0.60279,-4.8056 6.803,-4.2673 4.0953,0.35544 12.953,0.29346 14.188,-0.0984 0.30343,-0.0962 0.49941,-0.11834 0.5936,-0.0741 z m -39.756,31.26 c 0.61241,-0.039 1.1439,-0.0303 1.4874,0.0433 1.2302,0.26398 3.843,0.51926 7.9566,0.77279 2.1562,0.13308 4.1252,0.36802 4.3748,0.52195 0.35762,0.22107 0.33291,1.0085 -0.1166,3.7117 -0.59525,3.5796 -0.55784,8.2606 0.0941,11.458 0.20157,0.98823 0.32337,1.8382 0.26876,1.8906 -0.0546,0.0524 -0.76435,-0.25922 -1.5747,-0.69438 -1.5457,-0.83002 -7.9362,-4.9913 -8.2523,-5.3738 -0.101,-0.12224 -1.1745,-0.98298 -2.3857,-1.9108 -1.2111,-0.9278 -3.3974,-2.8662 -4.8609,-4.3076 -2.8347,-2.792 -3.2336,-3.7983 -1.9555,-4.9549 0.54418,-0.49252 3.1267,-1.0387 4.9639,-1.1559 z m -268.26,7.0337 c 1.1081,-0.14001 6.7406,0.80648 9.7576,1.6397 1.6045,0.44309 2.7738,0.68367 4.1866,0.86018 0.40356,0.0503 1.1463,0.20113 1.6509,0.33377 1.2829,0.33681 10.163,2.3697 14.13,3.2346 4.7482,1.0354 9.5719,2.1135 12.112,2.706 1.2111,0.28263 4.9946,1.0487 8.4069,1.7047 7.3442,1.412 8.2926,1.9314 8.2926,4.5316 0,1.2371 -0.23234,1.827 -1.0663,2.7194 -0.94523,1.0119 -1.2837,1.1367 -3.0263,1.1088 -1.0796,-0.0173 -4.275,-0.50977 -7.1009,-1.0932 -4.1973,-0.86651 -16.442,-3.52 -19.452,-4.2157 -0.40356,-0.0932 -3.0452,-0.67339 -5.8711,-1.288 -2.826,-0.61457 -6.9548,-1.5332 -9.1752,-2.0429 -6.0179,-1.3813 -8.1374,-1.8527 -11.402,-2.5334 -3.9277,-0.81922 -4.5334,-1.3072 -4.6839,-3.7745 -0.10144,-1.6629 -0.009,-2.0054 0.64283,-2.3521 0.41917,-0.22323 0.92716,-0.62953 1.129,-0.9027 0.202,-0.27309 0.86287,-0.55953 1.4694,-0.63617 z m 251.1,18.218 c 3.2296,0.026 4.5159,1.138 4.5159,3.7342 0,0.98701 -0.3017,1.596 -1.2589,2.5536 l -1.2567,1.2589 -5.0736,0.22627 c -6.4156,0.28739 -15.562,0.81484 -26.358,1.521 -4.6426,0.30343 -11.909,0.65138 -16.148,0.77054 -7.452,0.20937 -7.7341,0.18986 -8.5009,-0.54657 -1.8034,-1.7312 -1.1652,-5.1804 1.1312,-6.113 0.67332,-0.27352 4.835,-0.63387 10.304,-0.89378 5.0464,-0.23971 10.083,-0.5001 11.193,-0.57791 1.1102,-0.078 3.7539,-0.23927 5.8733,-0.35848 2.1195,-0.1192 5.8345,-0.36672 8.2568,-0.55107 2.4222,-0.18466 6.305,-0.43131 8.6264,-0.54657 2.3213,-0.11487 5.5563,-0.30516 7.1905,-0.4235 0.54262,-0.039 1.0439,-0.0577 1.5053,-0.0537 z m 91.36,2.9434 c 3.2331,0.17815 3.8131,2.238 3.7767,8.1671 -0.0624,10.16 -2.9564,17.799 -6.7425,17.799 -0.53308,0 -1.3421,-0.37235 -1.7987,-0.8288 -0.45662,-0.45666 -1.3687,-2.1508 -2.0272,-3.7632 -0.65858,-1.6124 -1.4213,-3.4265 -1.6935,-4.0321 -1.235,-2.7475 -2.518,-8.1626 -2.5066,-10.577 0.0173,-4.0977 1.5447,-5.5299 6.7985,-6.3886 1.7425,-0.2848 3.1156,-0.43577 4.1933,-0.37626 z m -22.548,4.0052 c 3.7101,0.16863 3.9671,0.45706 3.9671,4.4621 0,1.6018 0.33898,4.4192 0.75264,6.2609 0.41353,1.8416 0.9917,4.4224 1.2858,5.7344 0.9513,4.245 0.78324,5.783 -0.71679,6.5857 -0.52654,0.28175 -1.3178,0.36542 -2.0116,0.21283 -1.4785,-0.32467 -5.0572,-2.9658 -6.4669,-4.7735 -3.0975,-3.9715 -3.0758,-3.9728 -4.0142,0.17685 -1.034,4.5724 -0.49533,4.1608 -6.682,5.0871 -8.9634,1.3421 -10.165,1.5188 -11.507,1.6845 -0.70652,0.0871 -3.6755,0.4985 -6.5969,0.91394 -2.9213,0.41526 -5.5752,0.75489 -5.898,0.75489 -0.32293,0 -1.8136,-0.84289 -3.313,-1.8727 -1.4994,-1.0298 -3.4671,-2.4735 -4.3725,-3.21 -3.1221,-2.5393 -9.2904,-8.6854 -11.068,-11.028 -2.1485,-2.831 -2.3314,-4.1376 -0.69888,-4.9818 1.513,-0.78242 2.7363,-0.71306 9.2065,0.52641 8.515,1.6312 9.4028,1.7908 13.382,2.4125 2.0185,0.31557 4.66,0.73824 5.8711,0.9386 1.2111,0.20026 3.2755,0.51466 4.5876,0.69888 5.8866,0.82642 7.2809,1.1047 9.1752,1.8346 3.304,1.2729 6.3454,2.1281 7.6161,2.1414 0.65602,0.009 1.1917,-0.0512 1.1917,-0.13004 0,-0.0785 -0.46161,-0.93409 -1.0259,-1.9018 -2.0536,-3.5216 -2.367,-4.4851 -2.202,-6.7672 0.13394,-1.8516 0.33377,-2.3422 1.4113,-3.4541 1.6888,-1.7424 4.2929,-2.4814 8.1268,-2.3072 z m -350.02,4.713 c 0.4462,0 1.1874,0.32771 1.6487,0.72802 0.69971,0.60677 0.80951,0.98806 0.66083,2.3072 -0.15909,1.4117 -0.80704,3.2706 -1.7853,5.1252 -0.18483,0.35067 -0.34079,0.84709 -0.34721,1.1021 -0.007,0.25488 -0.23321,0.75415 -0.504,1.111 -0.46167,0.60838 -0.52883,0.59221 -1.0887,-0.26225 -0.32836,-0.50109 -0.59809,-0.99178 -0.59809,-1.0909 0,-0.0993 -0.49057,-1.0136 -1.0909,-2.0317 -0.60032,-1.0181 -0.97271,-1.8539 -0.82656,-1.857 0.14616,-0.003 0.07,-0.12961 -0.17023,-0.28219 -0.24019,-0.15258 -0.8538,-0.89434 -1.3642,-1.6464 l -0.92961,-1.3664 0.83777,-0.54657 c 0.83641,-0.54804 4.0314,-1.2902 5.5575,-1.2902 z m 84.046,2.7216 c 0.89521,0.0303 1.2947,0.21847 1.7629,0.58687 1.2882,1.0133 1.7295,2.4718 1.2208,4.0298 -0.59433,1.8205 -2.2462,2.782 -5.2461,3.0532 -1.3781,0.12441 -5.3136,0.4799 -8.7451,0.7907 -7.6768,0.69533 -20.638,1.6962 -28.258,2.1818 -4.1164,0.26225 -9.0273,0.60916 -11.01,0.77731 -1.0093,0.0854 -4.0113,0.26702 -6.6708,0.40313 l -4.8362,0.24621 -1.1289,-1.129 c -0.62064,-0.6206 -1.1268,-1.4495 -1.1268,-1.8435 0,-1.783 0.48848,-2.8958 1.6106,-3.6647 1.3601,-0.93193 2.0354,-1.0207 13.436,-1.7405 1.7157,-0.10836 3.9457,-0.26571 4.9549,-0.34937 1.0092,-0.0837 3.568,-0.25099 5.6874,-0.37192 7.1918,-0.4118 19.62,-1.2918 23.305,-1.6509 2.0186,-0.1968 4.8278,-0.45017 6.2408,-0.56452 1.413,-0.11443 3.2428,-0.28349 4.0679,-0.37625 2.4486,-0.27439 3.8402,-0.40746 4.7354,-0.37842 z m 143.71,9.0318 c 0.79118,0.0472 1.6404,0.2215 2.5178,0.53087 3.0074,1.061 19.507,5.0759 35.625,8.6689 13.84,3.085 17.289,4.1366 17.401,5.3022 0.0303,0.33594 -15.113,2.718 -17.033,2.6791 -0.50465,-0.009 -1.661,-0.22931 -2.5693,-0.48831 -0.90834,-0.25878 -3.798,-0.97666 -6.4222,-1.5949 -18.618,-4.3864 -31.828,-7.76 -33.141,-8.4629 -0.97418,-0.52129 -1.52,-2.421 -1.1178,-3.8909 0.51657,-1.8881 2.3664,-2.8862 4.7399,-2.744 z m -261.33,40.972 c 3.0522,-0.002 4.704,0.61327 5.4119,2.0182 0.57357,1.1384 1.194,4.7769 1.194,7.0023 0,2.2564 -0.67673,6.862 -1.1335,7.7147 -0.19051,0.35545 -0.60817,1.4292 -0.92738,2.3857 -0.77609,2.3253 -3.95,7.6448 -5.5822,9.3543 -1.5063,1.5778 -2.5376,1.73 -3.6535,0.5421 -0.43031,-0.45805 -1.1959,-2.3156 -1.7002,-4.1284 -0.50426,-1.8128 -1.5849,-5.4422 -2.4013,-8.0663 -2.289,-7.3571 -2.0566,-10.6 0.98114,-13.637 2.167,-2.1671 4.6625,-3.1831 7.811,-3.1853 z m 464.11,1.9846 4.6033,28.303 c 2.0459,-3.4959 4.3828,-6.2016 7.009,-8.1134 2.6212,-1.9432 5.6602,-3.1962 9.1192,-3.7587 6.1004,-0.99209 11.027,0.127 14.78,3.3578 3.7845,3.2255 6.2581,8.4078 7.419,15.546 l 5.2305,32.169 -16.979,2.762 -0.85121,-5.2372 -3.1382,-19.291 c -0.75173,-4.6225 -1.3779,-7.7794 -1.8794,-9.4731 -0.4698,-1.6988 -1.0236,-2.9178 -1.6598,-3.6535 -0.83934,-0.99322 -1.8732,-1.6968 -3.1024,-2.1101 -1.2343,-0.44478 -2.5744,-0.54886 -4.0208,-0.31383 -3.5219,0.57279 -6.0664,2.3915 -7.6341,5.4545 -1.5727,3.0316 -1.9674,6.9513 -1.1849,11.762 l 4.2269,25.991 -16.888,2.7463 -11.935,-73.395 z m -438.21,0.26442 1.4538,0.81536 c 0.79999,0.44804 1.8676,1.1037 2.3722,1.4582 0.50465,0.35458 1.8265,1.1195 2.9367,1.698 l 2.0183,1.0506 -4.955,0.79746 c -5.6123,0.90258 -11.228,1.4088 -10.091,0.90947 0.67029,-0.29433 3.3137,-3.0648 5.4209,-5.6807 z m -52.011,2.5514 c 3.2454,0.0494 4.1601,0.69538 5.0401,3.5594 0.79446,2.5859 0.97249,12.98 0.28895,16.836 -0.55046,3.1057 -1.9531,6.3631 -3.2749,7.6049 -0.96235,0.90405 -3.2138,1.2336 -4.6526,0.68094 -1.1011,-0.42263 -2.7142,-2.8735 -4.8004,-7.3002 -4.1828,-8.8757 -5.2159,-12.144 -4.9146,-15.541 0.2385,-2.6894 0.97074,-3.5196 4.0164,-4.5562 3.0102,-1.0245 5.0126,-1.3337 8.2971,-1.2836 z m -28.298,4.433 c 5.472,0.0173 6.0988,0.55394 6.4759,5.5687 0.23477,3.1217 0.95183,5.8131 3.1181,11.724 1.8602,5.076 2.0007,7.2868 0.53985,8.4359 -1.0319,0.81176 -1.182,0.83309 -2.8852,0.4144 -3.7316,-0.91718 -8.784,-5.2706 -13.649,-11.765 -3.0723,-4.1015 -4.027,-6.6514 -3.4519,-9.211 0.72955,-3.247 4.4223,-5.1831 9.8516,-5.1677 z m 480.18,19.93 c 2.7565,0.0173 5.7045,0.15952 8.8459,0.4235 l 2.0877,12.831 c -3.8617,-0.92131 -7.5358,-1.486 -11.023,-1.6934 -3.4873,-0.20763 -6.7254,-0.0694 -9.7128,0.41657 -3.2074,0.52159 -5.5317,1.319 -6.971,2.3923 -1.4129,1.0367 -1.9824,2.3879 -1.7114,4.0545 0.21977,1.3521 0.9702,2.2951 2.2512,2.8291 1.3126,0.52888 3.5219,0.71909 6.6283,0.56898 l 3.0397,-0.0581 c 8.8264,-0.3056 14.938,0.55524 18.335,2.585 3.3964,2.0298 5.5321,5.7334 6.4065,11.111 0.91536,5.6287 -0.47149,10.195 -4.162,13.7 -3.6905,3.5051 -9.6547,5.9291 -17.893,7.2689 -3.4904,0.56763 -7.1534,0.87141 -10.987,0.91393 -3.7975,0.0689 -7.7514,-0.12787 -11.861,-0.58913 l -2.0855,-12.829 c 3.6306,1.088 7.2721,1.7533 10.927,1.9981 3.6862,0.23971 7.3532,0.0646 11.001,-0.52866 3.3018,-0.53694 5.7125,-1.3976 7.2308,-2.5805 1.5183,-1.1829 2.1306,-2.6698 1.8391,-4.4622 -0.24534,-1.5094 -1.0081,-2.5326 -2.2893,-3.0666 -1.2547,-0.57058 -3.6292,-0.78029 -7.1232,-0.63165 l -3.033,0.10533 c -7.6688,0.27873 -13.219,-0.6095 -16.652,-2.6656 -3.433,-2.0561 -5.5717,-5.6779 -6.4154,-10.866 -0.91029,-5.5973 0.33334,-10.061 3.7296,-13.389 3.3965,-3.3282 9.0575,-5.6375 16.982,-6.9262 3.1131,-0.50625 6.4214,-0.80131 9.9256,-0.88701 0.87605,-0.0217 1.7737,-0.0303 2.6925,-0.026 z m -154.29,4.1508 4.601,28.301 c 2.0459,-3.4958 4.3828,-6.1993 7.0091,-8.1111 2.6212,-1.9433 5.6602,-3.1963 9.1191,-3.7588 6.1003,-0.99209 11.029,0.12744 14.782,3.3578 3.7846,3.2255 6.2559,8.4055 7.4168,15.544 l 5.2327,32.169 -16.982,2.762 -0.85121,-5.235 -3.1383,-19.293 c -0.75173,-4.6224 -1.3779,-7.7794 -1.8794,-9.4731 -0.46979,-1.6988 -1.0214,-2.9155 -1.6576,-3.6513 -0.83929,-0.99322 -1.8732,-1.6967 -3.1024,-2.1101 -1.2343,-0.44479 -2.5766,-0.55112 -4.0231,-0.316 -3.5219,0.57279 -6.0664,2.3915 -7.6341,5.4545 -1.5727,3.0316 -1.9674,6.9536 -1.185,11.765 l 4.227,25.989 -16.885,2.7463 -11.937,-73.392 z m 87.451,6.1758 c 5.8857,0.0607 10.946,1.5565 15.181,4.4868 5.9233,4.0719 9.5894,10.449 11.001,19.128 1.4114,8.6789 -0.0468,15.886 -4.3748,21.625 -4.2964,5.7338 -10.987,9.3414 -20.075,10.819 -9.1191,1.483 -16.656,0.18943 -22.611,-3.8775 -5.9233,-4.0719 -9.5916,-10.447 -11.003,-19.125 -1.4114,-8.6788 0.0468,-15.888 4.3748,-21.628 4.3593,-5.7441 11.099,-9.3565 20.219,-10.84 2.5559,-0.4157 4.986,-0.61288 7.2891,-0.58913 z m -135.87,5.3492 c 5.4023,0.002 9.9698,1.1086 13.702,3.3197 5.4555,3.1797 8.7805,8.4475 9.9771,15.806 1.2017,7.3896 -0.27829,13.474 -4.4398,18.25 -4.1353,4.7394 -10.683,7.8387 -19.645,9.2961 l -11.98,1.9466 3.9716,24.434 -18.16,2.9524 -11.451,-70.422 30.14,-4.9012 c 2.8006,-0.45545 5.4293,-0.68194 7.8849,-0.68095 z m 132.55,7.1345 c -0.64448,0.009 -1.3105,0.0672 -2.0003,0.17902 -3.742,0.60855 -6.384,2.428 -7.9252,5.4545 -1.515,2.9899 -1.8605,7.0156 -1.0372,12.078 0.82333,5.0626 2.4289,8.786 4.8183,11.173 2.4158,2.3507 5.4937,3.2227 9.2357,2.6141 3.6791,-0.59832 6.2759,-2.3929 7.7908,-5.3828 1.5098,-3.0214 1.8538,-7.0627 1.0304,-12.125 -0.82334,-5.0627 -2.4273,-8.7727 -4.8116,-11.128 -1.9414,-1.9396 -4.3081,-2.8941 -7.1009,-2.8628 z m -137.12,6.7716 c -0.97094,-0.013 -2.0064,0.0698 -3.107,0.24881 l -10.047,1.6352 3.1988,19.67 10.047,-1.6352 c 3.5218,-0.57275 6.104,-1.863 7.746,-3.873 1.6369,-2.0414 2.2004,-4.6351 1.689,-7.7796 -0.51141,-3.1445 -1.8647,-5.4101 -4.059,-6.7962 -1.5086,-0.95294 -3.3318,-1.4424 -5.4679,-1.4695 z"
       fill="#ffffff"
       stroke-width="0.36701" />
  </g>
  <text
     xml:space="preserve"
     style="font-style:normal;font-variant:normal;font-weight:800;font-stretch:normal;font-size:49.9999px;line-height:0.272206px;font-family:Cantarell;-inkscape-font-specification:'Cantarell Ultra-Bold';text-align:center;letter-spacing:0px;word-spacing:0px;text-anchor:middle;fill:#ffffff;fill-opacity:1;stroke:none;stroke-width:0.264583px;stroke-linecap:butt;stroke-linejoin:miter;stroke-opacity:1"
     x="566.59973"
     y="553.92468"
     id="text2"><tspan
       sodipodi:role="line"
       id="tspan2"
       style="font-style:normal;font-variant:normal;font-weight:800;font-stretch:normal;font-family:Cantarell;-inkscape-font-specification:'Cantarell Ultra-Bold';fill:#ffffff;fill-opacity:1;stroke:none;stroke-width:0.264583px"
       x="566.59973"
       y="553.92468">.mobi e.V.</tspan></text>
</svg>
